<svg width="48" height="48" viewBox="0 0 48 48" fill="none" xmlns="http://www.w3.org/2000/svg">
<rect width="48" height="48" rx="24" fill="#171717"/>
<path d="M11.644 18.864C12.092 18.8213 12.524 18.8373 12.94 18.912C13.5267 18.9973 14.0813 19.2107 14.604 19.552C14.668 19.6053 14.716 19.6267 14.748 19.616C14.8013 19.5627 14.94 19.44 15.164 19.248C15.4413 19.0133 15.5853 18.8907 15.596 18.88C15.628 18.8587 15.7027 18.848 15.82 18.848C15.948 18.848 16.028 18.8587 16.06 18.88C16.1133 18.912 16.1453 18.9867 16.156 19.104C16.1667 19.2533 16.172 19.808 16.172 20.768C16.172 21.9627 16.1347 22.5867 16.06 22.64C16.0173 22.6613 15.8627 22.672 15.596 22.672C15.3293 22.672 15.1747 22.6613 15.132 22.64C15.068 22.608 15.0253 22.496 15.004 22.304C14.94 21.9627 14.8387 21.648 14.7 21.36C14.572 21.0933 14.396 20.8587 14.172 20.656C13.7133 20.208 13.0733 19.968 12.252 19.936C11.3773 19.904 10.8227 20.192 10.588 20.8C10.5347 20.9493 10.508 21.12 10.508 21.312C10.508 21.5253 10.5453 21.712 10.62 21.872C10.78 22.2027 11.068 22.448 11.484 22.608C11.5587 22.6507 11.9693 22.7467 12.716 22.896C13.484 23.056 13.9107 23.152 13.996 23.184C14.4653 23.3013 14.8867 23.4987 15.26 23.776C16.028 24.3413 16.492 25.1147 16.652 26.096C16.6947 26.3947 16.6947 26.768 16.652 27.216C16.588 27.6213 16.4653 28.0107 16.284 28.384C16.0707 28.8213 15.788 29.1733 15.436 29.44C14.9453 29.8133 14.3533 30.048 13.66 30.144C13.3933 30.1867 12.9827 30.192 12.428 30.16C12.3747 30.1493 12.332 30.144 12.3 30.144C11.3827 30.048 10.6467 29.8187 10.092 29.456C10.028 29.4133 9.98 29.3973 9.948 29.408C9.89467 29.4613 9.756 29.584 9.532 29.776C9.25467 30.0107 9.11067 30.1333 9.1 30.144C9.068 30.1653 8.99333 30.176 8.876 30.176C8.748 30.176 8.668 30.1653 8.636 30.144C8.58267 30.112 8.55067 30.0373 8.54 29.92C8.52933 29.7707 8.524 29.2213 8.524 28.272C8.524 27.1093 8.53467 26.512 8.556 26.48C8.56667 26.4587 8.588 26.432 8.62 26.4C8.67333 26.368 8.828 26.352 9.084 26.352C9.36133 26.352 9.52133 26.3627 9.564 26.384C9.63867 26.4267 9.676 26.5387 9.676 26.72C9.708 27.296 9.91067 27.7707 10.284 28.144C10.5613 28.4213 10.9453 28.64 11.436 28.8C12.0653 29.0027 12.6947 29.072 13.324 29.008C13.4093 28.9973 13.484 28.9867 13.548 28.976C13.8467 28.912 14.092 28.784 14.284 28.592C14.4973 28.3787 14.636 28.0907 14.7 27.728C14.7853 27.184 14.636 26.72 14.252 26.336C14.092 26.1547 13.884 26.0267 13.628 25.952C13.5853 25.9307 13.1587 25.8293 12.348 25.648C11.58 25.4987 11.1427 25.4027 11.036 25.36C10.2467 25.136 9.628 24.7147 9.18 24.096C8.72133 23.488 8.50267 22.8053 8.524 22.048C8.556 21.2907 8.78 20.64 9.196 20.096C9.59067 19.5627 10.1667 19.1947 10.924 18.992C11.18 18.928 11.42 18.8853 11.644 18.864Z" fill="#FAFAFA"/>
<path d="M20.82 19.6V19.024H21.044L22.612 19.056C23.5293 19.0667 24.4413 19.0667 25.348 19.056L26.932 19.024H27.14V19.6V20.176H26.228H25.316V24.512V28.848H26.228H27.14V29.424V30H26.916L25.348 29.968C24.4413 29.9573 23.5293 29.9573 22.612 29.968L21.028 30H20.82V29.424V28.848H21.732H22.644V24.512V20.176H21.732H20.82V19.6ZM28.4608 19.296V19.2H33.8528H39.2608V19.296L39.4368 21.328C39.5328 22.6613 39.5861 23.3387 39.5968 23.36V23.456H39.0208C38.6368 23.456 38.4448 23.4507 38.4448 23.44C38.4448 23.2267 38.4181 22.9493 38.3648 22.608C38.3008 22.128 38.2101 21.7333 38.0928 21.424C37.9328 21.0507 37.6608 20.7733 37.2768 20.592C37.1168 20.5067 36.9034 20.4427 36.6368 20.4C36.5408 20.3787 36.2688 20.3627 35.8208 20.352H35.1968V24.592V28.848H36.4288H37.6448V29.424V30H37.3888L35.5008 29.968C34.4021 29.9573 33.3088 29.9573 32.2208 29.968L30.3328 30H30.0768V29.424V28.848H31.3088H32.5248V24.592V20.352H31.9008C31.4528 20.3627 31.1808 20.3787 31.0848 20.4C30.5834 20.496 30.1994 20.6827 29.9328 20.96C29.7621 21.1307 29.6234 21.3867 29.5168 21.728C29.4314 22.0373 29.3621 22.512 29.3088 23.152C29.2874 23.3333 29.2768 23.4293 29.2768 23.44C29.2768 23.4507 29.0848 23.456 28.7008 23.456H28.1248V23.36L28.3008 21.328C28.3968 19.9947 28.4501 19.3173 28.4608 19.296Z" fill="#FAFAFA"/>
</svg>
