<svg width="33" height="33" viewBox="0 0 33 33" fill="none" xmlns="http://www.w3.org/2000/svg">
<rect x="2.5" y="2.5" width="28" height="28" rx="6" fill="url(#paint0_radial_724_1614)"/>
<rect x="2.5" y="2.5" width="28" height="28" rx="6" fill="url(#paint1_radial_724_1614)"/>
<rect x="2.5" y="2.5" width="28" height="28" rx="6" fill="url(#paint2_radial_724_1614)"/>
<path d="M23.5 11C23.5 11.8284 22.8284 12.5 22 12.5C21.1716 12.5 20.5 11.8284 20.5 11C20.5 10.1716 21.1716 9.5 22 9.5C22.8284 9.5 23.5 10.1716 23.5 11Z" fill="#FAFAFA"/>
<path fill-rule="evenodd" clip-rule="evenodd" d="M16.5 21.5C19.2614 21.5 21.5 19.2614 21.5 16.5C21.5 13.7386 19.2614 11.5 16.5 11.5C13.7386 11.5 11.5 13.7386 11.5 16.5C11.5 19.2614 13.7386 21.5 16.5 21.5ZM16.5 19.5C18.1569 19.5 19.5 18.1569 19.5 16.5C19.5 14.8431 18.1569 13.5 16.5 13.5C14.8431 13.5 13.5 14.8431 13.5 16.5C13.5 18.1569 14.8431 19.5 16.5 19.5Z" fill="#FAFAFA"/>
<path fill-rule="evenodd" clip-rule="evenodd" d="M6.5 16.1C6.5 12.7397 6.5 11.0595 7.15396 9.77606C7.7292 8.64708 8.64708 7.7292 9.77606 7.15396C11.0595 6.5 12.7397 6.5 16.1 6.5H16.9C20.2603 6.5 21.9405 6.5 23.2239 7.15396C24.3529 7.7292 25.2708 8.64708 25.846 9.77606C26.5 11.0595 26.5 12.7397 26.5 16.1V16.9C26.5 20.2603 26.5 21.9405 25.846 23.2239C25.2708 24.3529 24.3529 25.2708 23.2239 25.846C21.9405 26.5 20.2603 26.5 16.9 26.5H16.1C12.7397 26.5 11.0595 26.5 9.77606 25.846C8.64708 25.2708 7.7292 24.3529 7.15396 23.2239C6.5 21.9405 6.5 20.2603 6.5 16.9V16.1ZM16.1 8.5H16.9C18.6132 8.5 19.7777 8.50156 20.6779 8.5751C21.5548 8.64674 22.0032 8.77659 22.316 8.93597C23.0686 9.31947 23.6805 9.93139 24.064 10.684C24.2234 10.9968 24.3533 11.4452 24.4249 12.3221C24.4984 13.2223 24.5 14.3868 24.5 16.1V16.9C24.5 18.6132 24.4984 19.7777 24.4249 20.6779C24.3533 21.5548 24.2234 22.0032 24.064 22.316C23.6805 23.0686 23.0686 23.6805 22.316 24.064C22.0032 24.2234 21.5548 24.3533 20.6779 24.4249C19.7777 24.4984 18.6132 24.5 16.9 24.5H16.1C14.3868 24.5 13.2223 24.4984 12.3221 24.4249C11.4452 24.3533 10.9968 24.2234 10.684 24.064C9.93139 23.6805 9.31947 23.0686 8.93597 22.316C8.77659 22.0032 8.64674 21.5548 8.5751 20.6779C8.50156 19.7777 8.5 18.6132 8.5 16.9V16.1C8.5 14.3868 8.50156 13.2223 8.5751 12.3221C8.64674 11.4452 8.77659 10.9968 8.93597 10.684C9.31947 9.93139 9.93139 9.31947 10.684 8.93597C10.9968 8.77659 11.4452 8.64674 12.3221 8.5751C13.2223 8.50156 14.3868 8.5 16.1 8.5Z" fill="#FAFAFA"/>
<defs>
<radialGradient id="paint0_radial_724_1614" cx="0" cy="0" r="1" gradientUnits="userSpaceOnUse" gradientTransform="translate(12.5 23.5) rotate(-55.3758) scale(25.5196)">
<stop stop-color="#B13589"/>
<stop offset="0.79309" stop-color="#C62F94"/>
<stop offset="1" stop-color="#8A3AC8"/>
</radialGradient>
<radialGradient id="paint1_radial_724_1614" cx="0" cy="0" r="1" gradientUnits="userSpaceOnUse" gradientTransform="translate(11.5 31.5) rotate(-65.1363) scale(22.5942)">
<stop stop-color="#E0E8B7"/>
<stop offset="0.444662" stop-color="#FB8A2E"/>
<stop offset="0.71474" stop-color="#E2425C"/>
<stop offset="1" stop-color="#E2425C" stop-opacity="0"/>
</radialGradient>
<radialGradient id="paint2_radial_724_1614" cx="0" cy="0" r="1" gradientUnits="userSpaceOnUse" gradientTransform="translate(1 3.5) rotate(-8.1301) scale(38.8909 8.31836)">
<stop offset="0.156701" stop-color="#406ADC"/>
<stop offset="0.467799" stop-color="#6A45BE"/>
<stop offset="1" stop-color="#6A45BE" stop-opacity="0"/>
</radialGradient>
</defs>
</svg>
